<svg width="24" height="24" viewBox="0 0 24 24" fill="none" xmlns="http://www.w3.org/2000/svg">
<path fill-rule="evenodd" clip-rule="evenodd" d="M8.2222 6C6.62671 6 5.33331 7.2934 5.33331 8.88889C5.33331 10.4844 6.62672 11.7778 8.22222 11.7778C9.81771 11.7778 11.1111 10.4844 11.1111 8.88889C11.1111 7.2934 9.81769 6 8.2222 6ZM11.4656 12.547C12.475 11.6514 13.1111 10.3444 13.1111 8.88889C13.1111 6.18883 10.9223 4 8.2222 4C5.52214 4 3.33331 6.18883 3.33331 8.88889C3.33331 10.3444 3.96942 11.6514 4.97879 12.547C4.29602 12.8902 3.66582 13.3426 3.11534 13.8931C2.87121 14.1372 2.64632 14.3971 2.44169 14.6703C1.98306 15.2826 1.7671 15.965 1.80512 16.6537C1.84257 17.3318 2.1215 17.9389 2.52026 18.429C3.30495 19.3935 4.62067 20 6 20L10.4444 20C11.8238 20 13.1395 19.3935 13.9242 18.429C14.3229 17.9389 14.6019 17.3318 14.6393 16.6537C14.6773 15.965 14.4614 15.2826 14.0028 14.6703C13.7981 14.3971 13.5732 14.1372 13.3291 13.8931C12.7786 13.3426 12.1484 12.8902 11.4656 12.547ZM8.22222 13.7778C6.8372 13.7778 5.50891 14.328 4.52955 15.3073C4.35296 15.4839 4.19036 15.6718 4.04243 15.8693C3.83887 16.1411 3.79234 16.3669 3.80208 16.5434C3.81241 16.7305 3.89153 16.9454 4.07166 17.1668C4.44475 17.6254 5.17019 18 6 18L10.4444 18C11.2743 18 11.9997 17.6254 12.3728 17.1668C12.5529 16.9454 12.632 16.7305 12.6424 16.5434C12.6521 16.3669 12.6056 16.1411 12.402 15.8693C12.2541 15.6718 12.0915 15.4839 11.9149 15.3073C10.9355 14.328 9.60724 13.7778 8.22222 13.7778ZM15 10C15 9.44772 15.4477 9 16 9H21C21.5523 9 22 9.44772 22 10C22 10.5523 21.5523 11 21 11H16C15.4477 11 15 10.5523 15 10ZM16 14C16 13.4477 16.4477 13 17 13H21C21.5523 13 22 13.4477 22 14C22 14.5523 21.5523 15 21 15H17C16.4477 15 16 14.5523 16 14Z" fill="white"/>
</svg>
